<svg width="66" height="13" viewBox="0 0 66 13" fill="none" xmlns="http://www.w3.org/2000/svg">
<path d="M5.81019 1.46353C5.95986 1.00287 6.61157 1.00287 6.76124 1.46353L7.58469 3.99783C7.65163 4.20384 7.8436 4.34332 8.06022 4.34332H10.7249C11.2093 4.34332 11.4107 4.96313 11.0188 5.24783L8.86303 6.81412C8.68778 6.94144 8.61445 7.16712 8.68139 7.37313L9.50484 9.90744C9.65451 10.3681 9.12727 10.7512 8.73541 10.4665L6.57961 8.90017C6.40436 8.77285 6.16707 8.77285 5.99182 8.90017L3.83601 10.4665C3.44416 10.7512 2.91692 10.3681 3.06659 9.90744L3.89004 7.37313C3.95697 7.16712 3.88365 6.94144 3.7084 6.81412L1.55259 5.24783C1.16074 4.96313 1.36212 4.34332 1.84649 4.34332H4.51121C4.72782 4.34332 4.9198 4.20384 4.98674 3.99783L5.81019 1.46353Z" fill="#E9B83E"/>
<path d="M19.1673 1.46353C19.317 1.00287 19.9687 1.00287 20.1184 1.46353L20.9418 3.99783C21.0087 4.20384 21.2007 4.34332 21.4173 4.34332H24.0821C24.5664 4.34332 24.7678 4.96313 24.376 5.24783L22.2201 6.81412C22.0449 6.94144 21.9716 7.16712 22.0385 7.37313L22.862 9.90744C23.0116 10.3681 22.4844 10.7512 22.0925 10.4665L19.9367 8.90017C19.7615 8.77285 19.5242 8.77285 19.3489 8.90017L17.1931 10.4665C16.8013 10.7512 16.274 10.3681 16.4237 9.90744L17.2472 7.37313C17.3141 7.16712 17.2408 6.94144 17.0655 6.81412L14.9097 5.24783C14.5179 4.96313 14.7192 4.34332 15.2036 4.34332H17.8683C18.0849 4.34332 18.2769 4.20384 18.3439 3.99783L19.1673 1.46353Z" fill="#E9B83E"/>
<path d="M32.5245 1.46353C32.6742 1.00287 33.3259 1.00287 33.4755 1.46353L34.299 3.99783C34.3659 4.20384 34.5579 4.34332 34.7745 4.34332H37.4392C37.9236 4.34332 38.125 4.96313 37.7331 5.24783L35.5773 6.81412C35.4021 6.94144 35.3287 7.16712 35.3957 7.37313L36.2191 9.90744C36.3688 10.3681 35.8416 10.7512 35.4497 10.4665L33.2939 8.90017C33.1187 8.77285 32.8814 8.77285 32.7061 8.90017L30.5503 10.4665C30.1585 10.7512 29.6312 10.3681 29.7809 9.90744L30.6043 7.37313C30.6713 7.16712 30.5979 6.94144 30.4227 6.81412L28.2669 5.24783C27.875 4.96313 28.0764 4.34332 28.5608 4.34332H31.2255C31.4421 4.34332 31.6341 4.20384 31.701 3.99783L32.5245 1.46353Z" fill="#E9B83E"/>
<path d="M45.8816 1.46353C46.0313 1.00287 46.683 1.00287 46.8327 1.46353L47.6561 3.99783C47.723 4.20384 47.915 4.34332 48.1316 4.34332H50.7964C51.2807 4.34332 51.4821 4.96313 51.0902 5.24783L48.9344 6.81412C48.7592 6.94144 48.6859 7.16712 48.7528 7.37313L49.5762 9.90744C49.7259 10.3681 49.1987 10.7512 48.8068 10.4665L46.651 8.90017C46.4758 8.77285 46.2385 8.77285 46.0632 8.90017L43.9074 10.4665C43.5156 10.7512 42.9883 10.3681 43.138 9.90744L43.9614 7.37313C44.0284 7.16712 43.9551 6.94144 43.7798 6.81412L41.624 5.24783C41.2321 4.96313 41.4335 4.34332 41.9179 4.34332H44.5826C44.7992 4.34332 44.9912 4.20384 45.0582 3.99783L45.8816 1.46353Z" fill="#E9B83E"/>
<path d="M59.2388 1.46353C59.3885 1.00287 60.0402 1.00287 60.1898 1.46353L61.0133 3.99783C61.0802 4.20384 61.2722 4.34332 61.4888 4.34332H64.1535C64.6379 4.34332 64.8393 4.96313 64.4474 5.24783L62.2916 6.81412C62.1164 6.94144 62.043 7.16712 62.11 7.37313L62.9334 9.90744C63.0831 10.3681 62.5559 10.7512 62.164 10.4665L60.0082 8.90017C59.833 8.77285 59.5957 8.77285 59.4204 8.90017L57.2646 10.4665C56.8727 10.7512 56.3455 10.3681 56.4952 9.90744L57.3186 7.37313C57.3856 7.16712 57.3122 6.94144 57.137 6.81412L54.9812 5.24783C54.5893 4.96313 54.7907 4.34332 55.2751 4.34332H57.9398C58.1564 4.34332 58.3484 4.20384 58.4153 3.99783L59.2388 1.46353Z" fill="#E9B83E"/>
</svg>
