<svg width="67" height="38" viewBox="0 0 67 38" fill="none" xmlns="http://www.w3.org/2000/svg">
<path fill-rule="evenodd" clip-rule="evenodd" d="M5.65295 0.289048C4.20224 1.03822 4.03155 3.11373 5.33697 4.13216L5.79877 4.4925L8.84089 4.55938L11.883 4.62626L12.3858 5.03702C13.3291 5.808 13.5934 6.88448 13.0878 7.89742C12.5961 8.88214 12.2284 9.03048 10.0742 9.11301C8.13484 9.18737 7.81965 9.26602 7.21478 9.82606C6.20271 10.7633 6.32313 12.4187 7.46636 13.2836C7.96586 13.6614 8.65751 13.7819 10.3493 13.7854C11.7104 13.7884 11.9139 13.8203 12.3108 14.0936C13.821 15.1335 13.6373 17.2983 11.9722 18.0836C11.4932 18.3095 11.033 18.3307 6.56856 18.3334C1.14454 18.3366 1.08721 18.3448 0.447917 19.2012C-0.387454 20.3204 -0.0102152 21.9988 1.21287 22.6037C1.75739 22.8731 1.97363 22.8842 6.745 22.8862C11.6409 22.8885 11.7176 22.8927 12.2241 23.1872C12.8348 23.5423 13.3466 24.4409 13.3466 25.158C13.3466 25.9169 12.8418 26.7628 12.1737 27.1238C11.6571 27.4031 11.432 27.4318 9.76763 27.4318C8.1711 27.4318 7.85774 27.4684 7.36492 27.7122C5.81133 28.4806 5.75164 30.7974 7.26256 31.6746C7.77999 31.975 7.81559 31.9768 12.482 31.9448L17.1805 31.9127L17.5974 30.8998C18.8487 27.8593 21.4845 25.792 24.626 25.3867C26.7875 25.1079 28.6927 25.7374 30.1634 27.2162C31.3739 28.4335 32.0645 30.1177 32.0645 31.8524V32.5146L38.7074 32.5145L45.3503 32.5142L45.5888 31.6785C46.3327 29.0709 48.7014 26.6304 51.3543 25.7378C52.7832 25.2571 54.8822 25.2281 56.0731 25.6725C58.4964 26.5769 60.0244 28.5688 60.3136 31.2002L60.4065 32.0465L60.9938 32.0022C62.2626 31.9066 63.4118 31.1171 64.3247 29.714C65.3733 28.1022 65.6873 26.9753 66.5613 21.6871C67.0392 18.7958 67.1031 17.8023 66.8667 16.9319C66.6511 16.1383 65.7121 14.0583 64.7828 12.3161C62.8555 8.7029 61.5849 7.14263 59.8375 6.24338C58.4291 5.51855 57.5036 5.34961 54.3921 5.24943L51.6534 5.16128L51.5087 4.42562C51.0628 2.15897 49.3435 0.602576 46.9051 0.258151C46.2144 0.160509 39.3268 0.0938972 26.0433 0.0561777L6.21279 0L5.65295 0.289048ZM23.9604 8.71749C24.2862 9.05041 24.2159 9.58182 23.7981 9.9431C23.571 10.1395 23.2571 10.1772 21.8517 10.1772H20.1761L20.0992 10.7122C20.0569 11.0065 19.9875 11.488 19.9452 11.7823L19.8683 12.3173H21.1457C22.1507 12.3173 22.4742 12.3645 22.6625 12.5387C22.9392 12.7945 22.9587 12.9798 22.7566 13.4332C22.5415 13.9156 22.1035 14.0561 20.8159 14.0561H19.6587L19.5847 14.4908C19.5442 14.7299 19.4423 15.423 19.3585 16.0309C19.1766 17.3506 18.8999 17.8013 18.2717 17.8013C17.7434 17.8013 17.5352 17.5952 17.5352 17.0724C17.5353 16.3272 18.5638 9.25867 18.7138 8.97229C18.9496 8.52193 19.308 8.45586 21.5602 8.44676C23.5481 8.43887 23.705 8.45653 23.9604 8.71749ZM30.3292 8.64111C30.7519 8.76938 31.1204 8.99302 31.3314 9.24917C32.4505 10.6083 31.8395 13.2556 30.1757 14.2568C29.9712 14.3798 29.9855 14.4836 30.3545 15.5502C30.8385 16.95 30.843 17.0554 30.4342 17.473C30.0748 17.8404 29.4378 17.9122 29.1948 17.613C29.1106 17.5093 28.8222 16.8022 28.554 16.0414L28.0662 14.658L27.1319 14.619C26.0672 14.5744 26.1471 14.4708 25.9665 16.1294C25.8691 17.0238 25.6365 17.5932 25.3175 17.7183C24.8878 17.8868 24.4764 17.7979 24.2818 17.4944C24.1032 17.2157 24.1356 16.8153 24.6299 13.1807C25.3229 8.08695 25.0898 8.43833 27.7767 8.43833C29.0795 8.43833 29.8672 8.50093 30.3292 8.64111ZM39.0587 8.61596C39.3608 8.84175 39.3649 9.43991 39.0666 9.77684C38.8623 10.0074 38.624 10.0406 36.9324 10.0734L35.0282 10.1103L34.942 10.4447C34.8945 10.6286 34.8185 11.0598 34.7731 11.4031L34.6905 12.0269L36.2025 12.0718C37.5184 12.1108 37.7387 12.1504 37.9002 12.3763C38.1704 12.7544 38.1285 13.0881 37.7643 13.4602C37.4608 13.7706 37.3609 13.7886 35.9478 13.7886H34.4524L34.3057 14.7973C34.2249 15.352 34.1588 15.8937 34.1588 16.0011C34.1588 16.1631 34.4773 16.1962 36.0306 16.1962C38.0857 16.1962 38.2166 16.2415 38.2166 16.951C38.2166 17.7294 37.9599 17.8013 35.1862 17.8013C32.5078 17.8013 32.3256 17.7517 32.327 17.0227C32.3284 16.2768 33.3485 9.27084 33.497 8.98741C33.5825 8.82422 33.7811 8.63777 33.9383 8.57303C34.4247 8.37279 38.7822 8.40931 39.0587 8.61596ZM46.2235 8.6597C46.5377 8.95022 46.5279 9.44205 46.2011 9.7759C45.9636 10.0187 45.7649 10.0434 44.0501 10.0434C41.9142 10.0434 42.0939 9.93802 41.9397 11.2807L41.8515 12.0498L43.1428 12.0518C44.8862 12.0545 45.3176 12.3015 45.1033 13.1744C44.9887 13.6408 44.4797 13.7886 42.9881 13.7886C42.2356 13.7886 41.6159 13.8037 41.6112 13.8221C41.6065 13.8404 41.5295 14.3822 41.4402 15.0259L41.2778 16.1962H43.1411C44.6605 16.1962 45.0423 16.235 45.2101 16.4064C45.4934 16.6958 45.4676 17.159 45.1489 17.5085C44.8921 17.7904 44.7866 17.8013 42.3377 17.8013C39.8238 17.8013 39.791 17.7976 39.5951 17.4924C39.4148 17.2109 39.4475 16.8202 39.9615 13.1253C40.6762 7.98811 40.3254 8.43833 43.613 8.43833C45.6357 8.43833 46.0193 8.47084 46.2235 8.6597ZM56.699 8.58761C57.6682 8.79613 58.7105 9.3424 59.3485 9.97587C60.2646 10.8858 62.9455 15.5922 62.9525 16.3033C62.9567 16.7172 62.63 17.3369 62.2728 17.5925C62.0191 17.7742 61.2198 17.8013 56.1232 17.8013H50.2654L50.329 17.4335C50.4008 17.0193 51.4369 8.70317 51.4369 8.542C51.4369 8.38109 55.9197 8.41988 56.699 8.58761ZM1.88161 9.49381C0.71167 10.2229 0.370558 11.7618 1.13956 12.842C1.45214 13.281 2.41775 13.7886 2.94042 13.7886C3.46308 13.7886 4.42869 13.281 4.74127 12.842C5.78397 11.3772 4.72294 9.24007 2.95377 9.24141C2.53085 9.24168 2.13764 9.33424 1.88161 9.49381ZM26.7706 10.3444C26.6756 10.7967 26.436 12.5395 26.436 12.7777C26.436 12.9525 26.6418 12.9853 27.7123 12.9814C29.1123 12.9762 29.4473 12.8601 29.8464 12.2414C30.1367 11.7912 30.1834 10.8785 29.9339 10.5298C29.7142 10.2225 28.9472 10.0505 27.7802 10.0466C26.9035 10.0437 26.8291 10.0656 26.7706 10.3444ZM23.5126 28.2364C20.978 29.1536 19.3117 31.6202 19.5341 34.126C19.9183 38.4561 25.4764 39.3976 28.2988 35.6107C30.1981 33.0623 29.6457 29.6739 27.1257 28.414C26.1259 27.9142 24.6091 27.8395 23.5126 28.2364ZM52.1723 28.1078C50.7117 28.4806 48.9783 29.962 48.3425 31.3812C47.6016 33.0349 47.6431 34.6036 48.4647 36.0025C49.4789 37.729 51.5318 38.4189 53.6502 37.7452C55.2468 37.2374 56.5022 36.1121 57.2474 34.521C57.6191 33.7271 57.6544 33.5353 57.6543 32.314C57.6543 31.1222 57.6162 30.9035 57.3057 30.3076C56.5465 28.8509 55.3235 28.0819 53.6621 28.0168C53.1222 27.9956 52.4518 28.0366 52.1723 28.1078Z" fill="#378DD4"/>
</svg>
